<?xml version="1.0" encoding="UTF-8" standalone="no"?>
<!-- Created with Inkscape (http://www.inkscape.org/) -->

<svg
   xmlns:dc="http://purl.org/dc/elements/1.1/"
   xmlns:cc="http://creativecommons.org/ns#"
   xmlns:rdf="http://www.w3.org/1999/02/22-rdf-syntax-ns#"
   xmlns:svg="http://www.w3.org/2000/svg"
   xmlns="http://www.w3.org/2000/svg"
   xmlns:xlink="http://www.w3.org/1999/xlink"
   xmlns:sodipodi="http://sodipodi.sourceforge.net/DTD/sodipodi-0.dtd"
   xmlns:inkscape="http://www.inkscape.org/namespaces/inkscape"
   width="2883"
   height="1923"
   viewBox="0 0 2883.0001 1923.0001"
   id="svg2"
   version="1.1"
   inkscape:version="0.91 r13725"
   sodipodi:docname="encounter_1.svg">
  <sodipodi:namedview
     id="base"
     pagecolor="#ffffff"
     bordercolor="#666666"
     borderopacity="1.0"
     inkscape:pageopacity="0.0"
     inkscape:pageshadow="2"
     inkscape:zoom="0.7"
     inkscape:cx="1527.2786"
     inkscape:cy="383.70204"
     inkscape:document-units="px"
     inkscape:current-layer="layer3"
     showgrid="true"
     inkscape:window-width="1920"
     inkscape:window-height="1025"
     inkscape:window-x="-3"
     inkscape:window-y="-3"
     inkscape:window-maximized="1"
     fit-margin-top="0"
     fit-margin-left="0"
     fit-margin-right="0"
     fit-margin-bottom="0"
     inkscape:snap-bbox="false"
     inkscape:bbox-nodes="true"
     showborder="false"
     units="px"
     inkscape:object-paths="true"
     inkscape:snap-intersection-paths="false"
     inkscape:snap-others="false"
     inkscape:snap-grids="false"
     inkscape:object-nodes="true"
     inkscape:snap-bbox-midpoints="false"
     inkscape:snap-smooth-nodes="true"
     inkscape:snap-nodes="false">
    <inkscape:grid
       type="xygrid"
       id="grid4400"
       empspacing="96"
       originx="0"
       originy="3.0000593" />
  </sodipodi:namedview>
  <defs
     id="defs4">
    <linearGradient
       inkscape:collect="always"
       id="linearGradient4692">
      <stop
         style="stop-color:#000000;stop-opacity:1;"
         offset="0"
         id="stop4694" />
      <stop
         style="stop-color:#000000;stop-opacity:0;"
         offset="1"
         id="stop4696" />
    </linearGradient>
    <linearGradient
       inkscape:collect="always"
       xlink:href="#linearGradient4692"
       id="linearGradient4698"
       x1="1348.2888"
       y1="1554.9514"
       x2="1374.6873"
       y2="1722.8079"
       gradientUnits="userSpaceOnUse" />
  </defs>
  <metadata
     id="metadata7">
    <rdf:RDF>
      <cc:Work
         rdf:about="">
        <dc:format>image/svg+xml</dc:format>
        <dc:type
           rdf:resource="http://purl.org/dc/dcmitype/StillImage" />
        <dc:title></dc:title>
      </cc:Work>
    </rdf:RDF>
  </metadata>
  <g
     inkscape:groupmode="layer"
     id="layer2"
     inkscape:label="terrain"
     style="display:inline"
     sodipodi:insensitive="true">
    <rect
       style="fill:#c4ff4f;fill-opacity:1;stroke-width:3;stroke-miterlimit:4;stroke-dasharray:none;stroke-dashoffset:0"
       id="rect4477"
       width="2880"
       height="480.00003"
       x="0"
       y="1440.0001" />
    <path
       style="fill:#007708;fill-opacity:1;stroke-width:3;stroke-miterlimit:4;stroke-dasharray:none;stroke-dashoffset:0"
       d="m 0,-5.9143993e-5 2880,0 L 2880,1440.0001 l -2880,0 z"
       id="rect4474"
       inkscape:connector-curvature="0" />
  </g>
  <g
     inkscape:groupmode="layer"
     id="layer3"
     inkscape:label="objects"
     style="display:inline">
    <path
       style="color:#000000;clip-rule:nonzero;display:inline;overflow:visible;visibility:visible;opacity:1;isolation:auto;mix-blend-mode:normal;color-interpolation:sRGB;color-interpolation-filters:linearRGB;solid-color:#000000;solid-opacity:1;fill:#64840f;fill-opacity:1;fill-rule:evenodd;stroke:#000000;stroke-width:1px;stroke-linecap:butt;stroke-linejoin:miter;stroke-miterlimit:4;stroke-dasharray:none;stroke-dashoffset:0;stroke-opacity:1;color-rendering:auto;image-rendering:auto;shape-rendering:auto;text-rendering:auto;enable-background:accumulate"
       d="m 1632,1344 0,192 384,0 0,-96 96,0 0,-96 z"
       id="path4812"
       inkscape:connector-curvature="0"
       sodipodi:nodetypes="ccccccc" />
    <path
       style="fill:#64840f;fill-rule:evenodd;stroke:#000000;stroke-width:1px;stroke-linecap:butt;stroke-linejoin:miter;stroke-opacity:1;color:#000000;clip-rule:nonzero;display:inline;overflow:visible;visibility:visible;opacity:1;isolation:auto;mix-blend-mode:normal;color-interpolation:sRGB;color-interpolation-filters:linearRGB;solid-color:#000000;solid-opacity:1;fill-opacity:1;stroke-miterlimit:4;stroke-dasharray:none;stroke-dashoffset:0;filter-blend-mode:normal;filter-gaussianBlur-deviation:0;color-rendering:auto;image-rendering:auto;shape-rendering:auto;text-rendering:auto;enable-background:accumulate"
       d="m 480,1344 0,96 96,96 96,0 96,-96 96,0 0,-192 -96,0 0,96 z"
       id="path4798"
       inkscape:connector-curvature="0" />
    <path
       id="path4645"
       style="fill:#875a02;fill-opacity:1;fill-rule:evenodd;stroke:#000000;stroke-width:5;stroke-linecap:butt;stroke-linejoin:miter;stroke-miterlimit:4;stroke-dasharray:none;stroke-opacity:1"
       d="m 2856.7857,1536 c 0,12.8209 10.3934,23.2143 23.2143,23.2143 12.8209,0 23.2143,-10.3934 23.2143,-23.2143 0,-12.8209 -10.3934,-23.2143 -23.2143,-23.2143 -12.8209,0 -23.2143,10.3934 -23.2143,23.2143 z m -72.7857,0 96,0 m -72.7857,0 c 0,12.8209 -10.3934,23.2143 -23.2143,23.2143 -12.8209,0 -23.2143,-10.3934 -23.2143,-23.2143 0,-12.8209 10.3934,-23.2143 23.2143,-23.2143 12.8209,0 23.2143,10.3934 23.2143,23.2143 z m -119.2143,0 96,0 m -72.7857,0 c 0,12.8209 -10.3934,23.2143 -23.2143,23.2143 -12.8209,0 -23.2143,-10.3934 -23.2143,-23.2143 0,-12.8209 10.3934,-23.2143 23.2143,-23.2143 12.8209,0 23.2143,10.3934 23.2143,23.2143 z m -119.2143,0 96,0 m -72.7857,0 c 0,12.8209 -10.3934,23.2143 -23.2143,23.2143 -12.8209,0 -23.2143,-10.3934 -23.2143,-23.2143 0,-12.8209 10.3934,-23.2143 23.2143,-23.2143 12.8209,0 23.2143,10.3934 23.2143,23.2143 z m -119.2143,0 96,0 m -72.7857,0 c 0,12.8209 -10.3934,23.2143 -23.2143,23.2143 -12.8209,0 -23.2143,-10.3934 -23.2143,-23.2143 0,-12.8209 10.3934,-23.2143 23.2143,-23.2143 12.8209,0 23.2143,10.3934 23.2143,23.2143 z m -119.2143,0 96,0 m -72.7857,0 c 0,12.8209 -10.3934,23.2143 -23.2143,23.2143 -12.8209,0 -23.2143,-10.3934 -23.2143,-23.2143 0,-12.8209 10.3934,-23.2143 23.2143,-23.2143 12.8209,0 23.2143,10.3934 23.2143,23.2143 z m -119.2143,0 96,0 m -72.7857,0 c 0,12.8209 -10.3934,23.2143 -23.2143,23.2143 -12.8209,0 -23.2143,-10.3934 -23.2143,-23.2143 0,-12.8209 10.3934,-23.2143 23.2143,-23.2143 12.8209,0 23.2143,10.3934 23.2143,23.2143 z m -119.2143,0 96,0 m -72.7857,0 c 0,12.8209 -10.3934,23.2143 -23.2143,23.2143 -12.8209,0 -23.2143,-10.3934 -23.2143,-23.2143 0,-12.8209 10.3934,-23.2143 23.2143,-23.2143 12.8209,0 23.2143,10.3934 23.2143,23.2143 z m -119.2143,0 96,0 m -72.7857,0 c 0,12.8209 -10.3934,23.2143 -23.2143,23.2143 -12.8209,0 -23.2143,-10.3934 -23.2143,-23.2143 0,-12.8209 10.3934,-23.2143 23.2143,-23.2143 12.8209,0 23.2143,10.3934 23.2143,23.2143 z m -23.2143,0 96,0 m -192,0 96,0 m -72.7857,0 c 0,12.8209 -10.3934,23.2143 -23.2143,23.2143 -12.8209,0 -23.2143,-10.3934 -23.2143,-23.2143 0,-12.8209 10.3934,-23.2143 23.2143,-23.2143 12.8209,0 23.2143,10.3934 23.2143,23.2143 z m -119.2143,0 96,0 m -72.7857,0 c 0,12.8209 -10.3934,23.2143 -23.2143,23.2143 -12.8209,0 -23.2143,-10.3934 -23.2143,-23.2143 0,-12.8209 10.3934,-23.2143 23.2143,-23.2143 12.8209,0 23.2143,10.3934 23.2143,23.2143 z m -119.2143,0 96,0 m -72.7857,0 c 0,12.8209 -10.3934,23.2143 -23.2143,23.2143 -12.8209,0 -23.2143,-10.3934 -23.2143,-23.2143 0,-12.8209 10.3934,-23.2143 23.2143,-23.2143 12.8209,0 23.2143,10.3934 23.2143,23.2143 z m -119.2143,0 96,0 m -72.7857,0 c 0,12.8209 -10.3934,23.2143 -23.2143,23.2143 -12.8209,0 -23.2143,-10.3934 -23.2143,-23.2143 0,-12.8209 10.3934,-23.2143 23.2143,-23.2143 12.8209,0 23.2143,10.3934 23.2143,23.2143 z m -119.2143,0 96,0 m -72.7857,0 c 0,12.8209 -10.3934,23.2143 -23.2143,23.2143 -12.8209,0 -23.2143,-10.3934 -23.2143,-23.2143 0,-12.8209 10.3934,-23.2143 23.2143,-23.2143 12.8209,0 23.2143,10.3934 23.2143,23.2143 z m -119.2143,0 96,0 m -72.7857,0 c 0,12.8209 -10.3934,23.2143 -23.2143,23.2143 -12.8209,0 -23.2143,-10.3934 -23.2143,-23.2143 0,-12.8209 10.3934,-23.2143 23.2143,-23.2143 12.8209,0 23.2143,10.3934 23.2143,23.2143 z m -23.2143,0 96,0 m -192,0 96,0 m -72.7857,0 c 0,12.8209 -10.3934,23.2143 -23.2143,23.2143 -12.8209,0 -23.2143,-10.3934 -23.2143,-23.2143 0,-12.8209 10.3934,-23.2143 23.2143,-23.2143 12.8209,0 23.2143,10.3934 23.2143,23.2143 z m -119.2143,0 96,0 m -72.7857,0 c 0,12.8209 -10.3934,23.2143 -23.2143,23.2143 -12.8209,0 -23.2143,-10.3934 -23.2143,-23.2143 0,-12.8209 10.3934,-23.2143 23.2143,-23.2143 12.8209,0 23.2143,10.3934 23.2143,23.2143 z m -119.2143,0 96,0 m -72.7857,0 c 0,12.8209 -10.3934,23.2143 -23.2143,23.2143 -12.8209,0 -23.2143,-10.3934 -23.2143,-23.2143 0,-12.8209 10.3934,-23.2143 23.2143,-23.2143 12.8209,0 23.2143,10.3934 23.2143,23.2143 z m -192,0 c 0,12.8209 -10.3934,23.2143 -23.2143,23.2143 -12.8209,0 -23.2143,-10.3934 -23.2143,-23.2143 0,-12.8209 10.3934,-23.2143 23.2143,-23.2143 12.8209,0 23.2143,10.3934 23.2143,23.2143 z M 960,1536 l 96,0 m -72.78571,0 c 10e-6,12.8209 -10.39339,23.2143 -23.21429,23.2143 -12.8209,0 -23.21429,-10.3934 -23.21428,-23.2143 -10e-6,-12.8209 10.39338,-23.2143 23.21428,-23.2143 12.8209,0 23.2143,10.3934 23.21429,23.2143 z M 864,1536 l 96,0 m -72.78571,0 c 10e-6,12.8209 -10.39339,23.2143 -23.21429,23.2143 -12.8209,0 -23.21429,-10.3934 -23.21428,-23.2143 -10e-6,-12.8209 10.39338,-23.2143 23.21428,-23.2143 12.8209,0 23.2143,10.3934 23.21429,23.2143 z M 768,1536 l 96,0 m -72.78571,0 c 10e-6,12.8209 -10.39339,23.2143 -23.21429,23.2143 -12.8209,0 -23.21429,-10.3934 -23.21428,-23.2143 -10e-6,-12.8209 10.39338,-23.2143 23.21428,-23.2143 12.8209,0 23.2143,10.3934 23.21429,23.2143 z M 672,1536 l 96,0 m -72.78571,0 c 10e-6,12.8209 -10.39339,23.2143 -23.21429,23.2143 -12.8209,0 -23.21429,-10.3934 -23.21428,-23.2143 -10e-6,-12.8209 10.39338,-23.2143 23.21428,-23.2143 12.8209,0 23.2143,10.3934 23.21429,23.2143 z M 576,1536 l 96,0 m -72.78571,0 c 10e-6,12.8209 -10.39339,23.2143 -23.21429,23.2143 -12.8209,0 -23.21429,-10.3934 -23.21428,-23.2143 -10e-6,-12.8209 10.39338,-23.2143 23.21428,-23.2143 12.8209,0 23.2143,10.3934 23.21429,23.2143 z M 480,1536 l 96,0 m -72.78571,0 c 10e-6,12.8209 -10.39339,23.2143 -23.21429,23.2143 -12.8209,0 -23.21429,-10.3934 -23.21428,-23.2143 -1e-5,-12.8209 10.39338,-23.2143 23.21428,-23.2143 12.8209,0 23.2143,10.3934 23.21429,23.2143 z M 384,1536 l 96,0 m -72.78571,0 c 10e-6,12.8209 -10.39339,23.2143 -23.21429,23.2143 -12.8209,0 -23.21429,-10.3934 -23.21428,-23.2143 -1e-5,-12.8209 10.39338,-23.2143 23.21428,-23.2143 12.8209,0 23.2143,10.3934 23.21429,23.2143 z M 288,1536 l 96,0 m -72.78571,0 c 10e-6,12.8209 -10.39339,23.2143 -23.21429,23.2143 -12.8209,0 -23.21429,-10.3934 -23.21428,-23.2143 -1e-5,-12.8209 10.39338,-23.2143 23.21428,-23.2143 12.8209,0 23.2143,10.3934 23.21429,23.2143 z M 192,1536 l 96,0 m -72.78571,0 c 1e-5,12.8209 -10.39339,23.2143 -23.21429,23.2143 -12.8209,0 -23.21429,-10.3934 -23.21428,-23.2143 -1e-5,-12.8209 10.39338,-23.2143 23.21428,-23.2143 12.8209,0 23.2143,10.3934 23.21429,23.2143 z M 96,1536 l 96,0 m -72.78571,0 c 10e-6,12.8209 -10.39339,23.2143 -23.21429,23.2143 -12.820899,0 -23.214287,-10.3934 -23.21428,-23.2143 -7e-6,-12.8209 10.393381,-23.2143 23.21428,-23.2143 12.8209,0 23.2143,10.3934 23.21429,23.2143 z M 0,1536 l 96,0 m -72.785715,0 c 7e-6,12.8209 -10.393384,23.2143 -23.214285,23.2143 -12.820901,0 -23.214292,-10.3934 -23.214285,-23.2143 -7e-6,-12.8209 10.393384,-23.2143 23.214285,-23.2143 12.820901,0 23.214292,10.3934 23.214285,23.2143 z"
       inkscape:connector-curvature="0"
       sodipodi:nodetypes="sssssccsssssccsssssccsssssccsssssccsssssccsssssccsssssccsssssccccsssssccsssssccsssssccsssssccsssssccsssssccccsssssccsssssccssssssssssccsssssccsssssccsssssccsssssccsssssccsssssccsssssccsssssccsssssccsssssccsssss" />
    <ellipse
       style="display:inline;fill:#986d00;fill-opacity:1;stroke:#000000;stroke-width:5;stroke-miterlimit:4;stroke-dasharray:none;stroke-dashoffset:0;stroke-opacity:1"
       id="path4650"
       cx="480"
       cy="864"
       rx="96"
       ry="96.000008" />
    <ellipse
       style="display:inline;fill:#986d00;fill-opacity:1;stroke:#000000;stroke-width:5;stroke-miterlimit:4;stroke-dasharray:none;stroke-dashoffset:0;stroke-opacity:1"
       id="path4652"
       cx="816"
       cy="1104.0001"
       rx="24"
       ry="24.000002" />
    <ellipse
       ry="96.000008"
       rx="96"
       cy="765.5"
       cx="2109.5"
       id="ellipse4654"
       style="display:inline;fill:#986d00;fill-opacity:1;stroke:#000000;stroke-width:5;stroke-miterlimit:4;stroke-dasharray:none;stroke-dashoffset:0;stroke-opacity:1" />
    <ellipse
       style="display:inline;fill:#986d00;fill-opacity:1;stroke:#000000;stroke-width:5;stroke-miterlimit:4;stroke-dasharray:none;stroke-dashoffset:0;stroke-opacity:1"
       id="ellipse4656"
       cx="1058.5"
       cy="285.49997"
       rx="96"
       ry="96.000008" />
    <ellipse
       ry="96.000008"
       rx="96"
       cy="573.5"
       cx="2589.5"
       id="ellipse4658"
       style="display:inline;fill:#986d00;fill-opacity:1;stroke:#000000;stroke-width:5;stroke-miterlimit:4;stroke-dasharray:none;stroke-dashoffset:0;stroke-opacity:1" />
    <ellipse
       ry="24.000002"
       rx="24"
       cy="813.5"
       cx="1197.5"
       id="ellipse4660"
       style="display:inline;fill:#986d00;fill-opacity:1;stroke:#000000;stroke-width:5;stroke-miterlimit:4;stroke-dasharray:none;stroke-dashoffset:0;stroke-opacity:1" />
    <ellipse
       style="display:inline;fill:#986d00;fill-opacity:1;stroke:#000000;stroke-width:5;stroke-miterlimit:4;stroke-dasharray:none;stroke-dashoffset:0;stroke-opacity:1"
       id="ellipse4662"
       cx="1485.5"
       cy="1293.5"
       rx="24"
       ry="24.000002" />
    <ellipse
       ry="24.000002"
       rx="24"
       cy="1101.5"
       cx="1965.5"
       id="ellipse4664"
       style="display:inline;fill:#986d00;fill-opacity:1;stroke:#000000;stroke-width:5;stroke-miterlimit:4;stroke-dasharray:none;stroke-dashoffset:0;stroke-opacity:1" />
    <ellipse
       style="display:inline;fill:#986d00;fill-opacity:1;stroke:#000000;stroke-width:5;stroke-miterlimit:4;stroke-dasharray:none;stroke-dashoffset:0;stroke-opacity:1"
       id="ellipse4666"
       cx="1197.5"
       cy="1101.5"
       rx="24"
       ry="24.000002" />
    <ellipse
       ry="24.000002"
       rx="24"
       cy="333.49997"
       cx="1965.5"
       id="ellipse4668"
       style="display:inline;fill:#986d00;fill-opacity:1;stroke:#000000;stroke-width:5;stroke-miterlimit:4;stroke-dasharray:none;stroke-dashoffset:0;stroke-opacity:1" />
    <ellipse
       ry="24.000002"
       rx="24"
       cy="1197.5"
       cx="2637.5"
       id="ellipse4672"
       style="display:inline;fill:#986d00;fill-opacity:1;stroke:#000000;stroke-width:5;stroke-miterlimit:4;stroke-dasharray:none;stroke-dashoffset:0;stroke-opacity:1" />
    <ellipse
       style="display:inline;fill:#986d00;fill-opacity:1;stroke:#000000;stroke-width:5;stroke-miterlimit:4;stroke-dasharray:none;stroke-dashoffset:0;stroke-opacity:1"
       id="ellipse4674"
       cx="2541.5"
       cy="141.49995"
       rx="24"
       ry="24.000002" />
    <ellipse
       ry="24.000002"
       rx="24"
       cy="237.49995"
       cx="434.5"
       id="ellipse4676"
       style="display:inline;fill:#986d00;fill-opacity:1;stroke:#000000;stroke-width:5;stroke-miterlimit:4;stroke-dasharray:none;stroke-dashoffset:0;stroke-opacity:1" />
    <ellipse
       style="display:inline;fill:#986d00;fill-opacity:1;stroke:#000000;stroke-width:5;stroke-miterlimit:4;stroke-dasharray:none;stroke-dashoffset:0;stroke-opacity:1"
       id="ellipse4678"
       cx="242.5"
       cy="1101.5"
       rx="24"
       ry="24.000002" />
    <ellipse
       ry="24.000002"
       rx="24"
       cy="530.5"
       cx="722.5"
       id="ellipse4680"
       style="display:inline;fill:#986d00;fill-opacity:1;stroke:#000000;stroke-width:5;stroke-miterlimit:4;stroke-dasharray:none;stroke-dashoffset:0;stroke-opacity:1" />
    <ellipse
       style="display:inline;fill:#986d00;fill-opacity:1;stroke:#000000;stroke-width:5;stroke-miterlimit:4;stroke-dasharray:none;stroke-dashoffset:0;stroke-opacity:1"
       id="ellipse4682"
       cx="1586.5"
       cy="237.49995"
       rx="24"
       ry="24.000002" />
    <ellipse
       ry="24.000002"
       rx="24"
       cy="813.5"
       cx="1682.5"
       id="ellipse4684"
       style="display:inline;fill:#986d00;fill-opacity:1;stroke:#000000;stroke-width:5;stroke-miterlimit:4;stroke-dasharray:none;stroke-dashoffset:0;stroke-opacity:1" />
    <ellipse
       style="display:inline;fill:url(#linearGradient4698);fill-opacity:1;stroke:#000000;stroke-width:6.3224287;stroke-miterlimit:4;stroke-dasharray:none;stroke-dashoffset:0;stroke-opacity:1"
       id="path4690"
       cx="1352.8619"
       cy="1585.5728"
       rx="114.48392"
       ry="64.35701"
       transform="matrix(0.77429514,-0.63282461,0.42917338,0.90322208,0,0)" />
    <path
       style="fill:#64840f;fill-rule:evenodd;stroke:#000000;stroke-width:1px;stroke-linecap:butt;stroke-linejoin:miter;stroke-opacity:1;fill-opacity:1"
       d="m 1440,767.99999 0,-96.00001 96,0 0,-96.00001 96,0 0,96.00001 96,0 0,96.00001 -96,0 0,96 -96,0 0,-96 z"
       id="path4748"
       inkscape:connector-curvature="0" />
    <path
       style="fill:#64840f;fill-opacity:1;fill-rule:evenodd;stroke:#000000;stroke-width:1px;stroke-linecap:butt;stroke-linejoin:miter;stroke-opacity:1"
       d="m 1632,479.99997 0,-96.00001 288,0 0,192.00001 -96,1e-5 0,-96.00001 z"
       id="path4750"
       inkscape:connector-curvature="0"
       sodipodi:nodetypes="ccccccc" />
    <path
       style="fill:#986d00;fill-rule:nonzero;stroke:#000000;stroke-width:5;stroke-linecap:butt;stroke-linejoin:miter;stroke-opacity:1;color:#000000;clip-rule:nonzero;display:inline;overflow:visible;visibility:visible;opacity:1;isolation:auto;mix-blend-mode:normal;color-interpolation:sRGB;color-interpolation-filters:linearRGB;solid-color:#000000;solid-opacity:1;fill-opacity:1;stroke-miterlimit:4;stroke-dasharray:none;stroke-dashoffset:0;filter-blend-mode:normal;filter-gaussianBlur-deviation:0;color-rendering:auto;image-rendering:auto;shape-rendering:auto;text-rendering:auto;enable-background:accumulate"
       d="m 1056,671.99998 480,-384.00002 96,96 -480,384.00003 z"
       id="path4752"
       inkscape:connector-curvature="0"
       sodipodi:nodetypes="ccccc" />
    <path
       style="fill:#64840f;fill-rule:evenodd;stroke:#000000;stroke-width:1px;stroke-linecap:butt;stroke-linejoin:miter;stroke-opacity:1;color:#000000;clip-rule:nonzero;display:inline;overflow:visible;visibility:visible;opacity:1;isolation:auto;mix-blend-mode:normal;color-interpolation:sRGB;color-interpolation-filters:linearRGB;solid-color:#000000;solid-opacity:1;fill-opacity:1;stroke-miterlimit:4;stroke-dasharray:none;stroke-dashoffset:0;filter-blend-mode:normal;filter-gaussianBlur-deviation:0;color-rendering:auto;image-rendering:auto;shape-rendering:auto;text-rendering:auto;enable-background:accumulate"
       d="m 672,767.99999 192,0 L 864,960 672,960 Z"
       id="path4768"
       inkscape:connector-curvature="0" />
    <path
       style="color:#000000;clip-rule:nonzero;display:inline;overflow:visible;visibility:visible;opacity:1;isolation:auto;mix-blend-mode:normal;color-interpolation:sRGB;color-interpolation-filters:linearRGB;solid-color:#000000;solid-opacity:1;fill:#64840f;fill-opacity:1;fill-rule:evenodd;stroke:#000000;stroke-width:1px;stroke-linecap:butt;stroke-linejoin:miter;stroke-miterlimit:4;stroke-dasharray:none;stroke-dashoffset:0;stroke-opacity:1;color-rendering:auto;image-rendering:auto;shape-rendering:auto;text-rendering:auto;enable-background:accumulate"
       d="m 2304,1152 0,-192 192,0 0,-96.00001 288,0 0,192.00001 -96,0 -96,0 -192,0 0,96 z"
       id="path4784"
       inkscape:connector-curvature="0"
       sodipodi:nodetypes="ccccccccccc" />
    <path
       style="fill:#64840f;fill-rule:evenodd;stroke:#000000;stroke-width:1px;stroke-linecap:butt;stroke-linejoin:miter;stroke-opacity:1;color:#000000;clip-rule:nonzero;display:inline;overflow:visible;visibility:visible;opacity:1;isolation:auto;mix-blend-mode:normal;color-interpolation:sRGB;color-interpolation-filters:linearRGB;solid-color:#000000;solid-opacity:1;fill-opacity:1;stroke-miterlimit:4;stroke-dasharray:none;stroke-dashoffset:0;filter-blend-mode:normal;filter-gaussianBlur-deviation:0;color-rendering:auto;image-rendering:auto;shape-rendering:auto;text-rendering:auto;enable-background:accumulate"
       d="m 2112,95.999947 0,192.000013 96,0 0,288.00001 192,0 0,-96 -96,0 0,-96.00001 0,-96 0,-96.00001 -96,0 0,-96.000003 z"
       id="path4791"
       inkscape:connector-curvature="0" />
    <path
       style="fill:#64840f;fill-rule:evenodd;stroke:#000000;stroke-width:1px;stroke-linecap:butt;stroke-linejoin:miter;stroke-opacity:1;color:#000000;clip-rule:nonzero;display:inline;overflow:visible;visibility:visible;opacity:1;isolation:auto;mix-blend-mode:normal;color-interpolation:sRGB;color-interpolation-filters:linearRGB;solid-color:#000000;solid-opacity:1;fill-opacity:1;stroke-miterlimit:4;stroke-dasharray:none;stroke-dashoffset:0;filter-blend-mode:normal;filter-gaussianBlur-deviation:0;color-rendering:auto;image-rendering:auto;shape-rendering:auto;text-rendering:auto;enable-background:accumulate"
       d="m 192,671.99998 0,-192.00001 192,0 0,-96.00001 192,0 0,192.00001 -96,0 0,96.00001 z"
       id="path4805"
       inkscape:connector-curvature="0" />
    <path
       style="fill:#64840f;fill-rule:evenodd;stroke:#000000;stroke-width:1px;stroke-linecap:butt;stroke-linejoin:miter;stroke-opacity:1;color:#000000;clip-rule:nonzero;display:inline;overflow:visible;visibility:visible;opacity:1;isolation:auto;mix-blend-mode:normal;color-interpolation:sRGB;color-interpolation-filters:linearRGB;solid-color:#000000;solid-opacity:1;fill-opacity:1;stroke-miterlimit:4;stroke-dasharray:none;stroke-dashoffset:0;filter-blend-mode:normal;filter-gaussianBlur-deviation:0;color-rendering:auto;image-rendering:auto;shape-rendering:auto;text-rendering:auto;enable-background:accumulate"
       d="m 1440,1056 0,96 192,0 0,-96 z"
       id="path4819"
       inkscape:connector-curvature="0" />
    <path
       style="fill:#64840f;fill-rule:evenodd;stroke:#000000;stroke-width:1px;stroke-linecap:butt;stroke-linejoin:miter;stroke-opacity:1;color:#000000;clip-rule:nonzero;display:inline;overflow:visible;visibility:visible;opacity:1;isolation:auto;mix-blend-mode:normal;color-interpolation:sRGB;color-interpolation-filters:linearRGB;solid-color:#000000;solid-opacity:1;fill-opacity:1;stroke-miterlimit:4;stroke-dasharray:none;stroke-dashoffset:0;filter-blend-mode:normal;filter-gaussianBlur-deviation:0;color-rendering:auto;image-rendering:auto;shape-rendering:auto;text-rendering:auto;enable-background:accumulate"
       d="m 1152,95.999947 0,192.000013 192,0 0,-192.000013 z"
       id="path4826"
       inkscape:connector-curvature="0" />
    <path
       style="fill:#875a02;fill-rule:evenodd;stroke:#000000;stroke-width:5;stroke-linecap:butt;stroke-linejoin:miter;stroke-opacity:1;color:#000000;clip-rule:nonzero;display:inline;overflow:visible;visibility:visible;opacity:1;isolation:auto;mix-blend-mode:normal;color-interpolation:sRGB;color-interpolation-filters:linearRGB;solid-color:#000000;solid-opacity:1;fill-opacity:1;stroke-miterlimit:4;stroke-dasharray:none;stroke-dashoffset:0;filter-blend-mode:normal;filter-gaussianBlur-deviation:0;color-rendering:auto;image-rendering:auto;shape-rendering:auto;text-rendering:auto;enable-background:accumulate"
       d="m 1144.2857,1480.143 27.1429,8.5714 22.8571,-118.5714 -30,0 z"
       id="path4833"
       inkscape:connector-curvature="0" />
  </g>
  <g
     id="layer1"
     inkscape:groupmode="layer"
     inkscape:label="grid"
     transform="translate(1007.9286,587.76233)"
     style="display:inline"
     sodipodi:insensitive="true">
    <g
       id="g4241"
       inkscape:label="Grid_Polar:X30:Y20"
       transform="translate(-1007.9286,-587.76239)">
      <g
         id="g4243"
         inkscape:label="MajorXGridlines">
        <path
           id="path4245"
           inkscape:label="MajorXDiv1"
           style="fill:none;stroke:#000000;stroke-width:2"
           d="m 96,0 0,1920"
           inkscape:connector-curvature="0" />
        <path
           id="path4247"
           inkscape:label="MajorXDiv2"
           style="fill:none;stroke:#000000;stroke-width:2"
           d="m 192,0 0,1920"
           inkscape:connector-curvature="0" />
        <path
           id="path4249"
           inkscape:label="MajorXDiv3"
           style="fill:none;stroke:#000000;stroke-width:2"
           d="m 288,0 0,1920"
           inkscape:connector-curvature="0" />
        <path
           id="path4251"
           inkscape:label="MajorXDiv4"
           style="fill:none;stroke:#000000;stroke-width:2"
           d="m 384,0 0,1920"
           inkscape:connector-curvature="0" />
        <path
           id="path4253"
           inkscape:label="MajorXDiv5"
           style="fill:none;stroke:#000000;stroke-width:2"
           d="m 480,0 0,1920"
           inkscape:connector-curvature="0" />
        <path
           id="path4255"
           inkscape:label="MajorXDiv6"
           style="fill:none;stroke:#000000;stroke-width:2"
           d="m 576,0 0,1920"
           inkscape:connector-curvature="0" />
        <path
           id="path4257"
           inkscape:label="MajorXDiv7"
           style="fill:none;stroke:#000000;stroke-width:2"
           d="m 672,0 0,1920"
           inkscape:connector-curvature="0" />
        <path
           id="path4259"
           inkscape:label="MajorXDiv8"
           style="fill:none;stroke:#000000;stroke-width:2"
           d="m 768,0 0,1920"
           inkscape:connector-curvature="0" />
        <path
           id="path4261"
           inkscape:label="MajorXDiv9"
           style="fill:none;stroke:#000000;stroke-width:2"
           d="m 864,0 0,1920"
           inkscape:connector-curvature="0" />
        <path
           id="path4263"
           inkscape:label="MajorXDiv10"
           style="fill:none;stroke:#000000;stroke-width:2"
           d="m 960,0 0,1920"
           inkscape:connector-curvature="0" />
        <path
           id="path4265"
           inkscape:label="MajorXDiv11"
           style="fill:none;stroke:#000000;stroke-width:2"
           d="m 1056,0 0,1920"
           inkscape:connector-curvature="0" />
        <path
           id="path4267"
           inkscape:label="MajorXDiv12"
           style="fill:none;stroke:#000000;stroke-width:2"
           d="m 1152,0 0,1920"
           inkscape:connector-curvature="0" />
        <path
           id="path4269"
           inkscape:label="MajorXDiv13"
           style="fill:none;stroke:#000000;stroke-width:2"
           d="m 1248,0 0,1920"
           inkscape:connector-curvature="0" />
        <path
           id="path4271"
           inkscape:label="MajorXDiv14"
           style="fill:none;stroke:#000000;stroke-width:2"
           d="m 1344,0 0,1920"
           inkscape:connector-curvature="0" />
        <path
           id="path4273"
           inkscape:label="MajorXDiv15"
           style="fill:none;stroke:#000000;stroke-width:2"
           d="m 1440,0 0,1920"
           inkscape:connector-curvature="0" />
        <path
           id="path4275"
           inkscape:label="MajorXDiv16"
           style="fill:none;stroke:#000000;stroke-width:2"
           d="m 1536,0 0,1920"
           inkscape:connector-curvature="0" />
        <path
           id="path4277"
           inkscape:label="MajorXDiv17"
           style="fill:none;stroke:#000000;stroke-width:2"
           d="m 1632,0 0,1920"
           inkscape:connector-curvature="0" />
        <path
           id="path4279"
           inkscape:label="MajorXDiv18"
           style="fill:none;stroke:#000000;stroke-width:2"
           d="m 1728,0 0,1920"
           inkscape:connector-curvature="0" />
        <path
           id="path4281"
           inkscape:label="MajorXDiv19"
           style="fill:none;stroke:#000000;stroke-width:2"
           d="m 1824,0 0,1920"
           inkscape:connector-curvature="0" />
        <path
           id="path4283"
           inkscape:label="MajorXDiv20"
           style="fill:none;stroke:#000000;stroke-width:2"
           d="m 1920,0 0,1920"
           inkscape:connector-curvature="0" />
        <path
           id="path4285"
           inkscape:label="MajorXDiv21"
           style="fill:none;stroke:#000000;stroke-width:2"
           d="m 2016,0 0,1920"
           inkscape:connector-curvature="0" />
        <path
           id="path4287"
           inkscape:label="MajorXDiv22"
           style="fill:none;stroke:#000000;stroke-width:2"
           d="m 2112,0 0,1920"
           inkscape:connector-curvature="0" />
        <path
           id="path4289"
           inkscape:label="MajorXDiv23"
           style="fill:none;stroke:#000000;stroke-width:2"
           d="m 2208,0 0,1920"
           inkscape:connector-curvature="0" />
        <path
           id="path4291"
           inkscape:label="MajorXDiv24"
           style="fill:none;stroke:#000000;stroke-width:2"
           d="m 2304,0 0,1920"
           inkscape:connector-curvature="0" />
        <path
           id="path4293"
           inkscape:label="MajorXDiv25"
           style="fill:none;stroke:#000000;stroke-width:2"
           d="m 2400,0 0,1920"
           inkscape:connector-curvature="0" />
        <path
           id="path4295"
           inkscape:label="MajorXDiv26"
           style="fill:none;stroke:#000000;stroke-width:2"
           d="m 2496,0 0,1920"
           inkscape:connector-curvature="0" />
        <path
           id="path4297"
           inkscape:label="MajorXDiv27"
           style="fill:none;stroke:#000000;stroke-width:2"
           d="m 2592,0 0,1920"
           inkscape:connector-curvature="0" />
        <path
           id="path4299"
           inkscape:label="MajorXDiv28"
           style="fill:none;stroke:#000000;stroke-width:2"
           d="m 2688,0 0,1920"
           inkscape:connector-curvature="0" />
        <path
           id="path4301"
           inkscape:label="MajorXDiv29"
           style="fill:none;stroke:#000000;stroke-width:2"
           d="m 2784,0 0,1920"
           inkscape:connector-curvature="0" />
      </g>
      <g
         id="g4303"
         inkscape:label="MajorYGridlines">
        <path
           id="path4305"
           inkscape:label="MajorYDiv1"
           style="fill:none;stroke:#000000;stroke-width:2"
           d="m 0,96 2880,0"
           inkscape:connector-curvature="0" />
        <path
           id="path4307"
           inkscape:label="MajorYDiv2"
           style="fill:none;stroke:#000000;stroke-width:2"
           d="m 0,192 2880,0"
           inkscape:connector-curvature="0" />
        <path
           id="path4309"
           inkscape:label="MajorYDiv3"
           style="fill:none;stroke:#000000;stroke-width:2"
           d="m 0,288 2880,0"
           inkscape:connector-curvature="0" />
        <path
           id="path4311"
           inkscape:label="MajorYDiv4"
           style="fill:none;stroke:#000000;stroke-width:2"
           d="m 0,384 2880,0"
           inkscape:connector-curvature="0" />
        <path
           id="path4313"
           inkscape:label="MajorYDiv5"
           style="fill:none;stroke:#000000;stroke-width:2"
           d="m 0,480 2880,0"
           inkscape:connector-curvature="0" />
        <path
           id="path4315"
           inkscape:label="MajorYDiv6"
           style="fill:none;stroke:#000000;stroke-width:2"
           d="m 0,576 2880,0"
           inkscape:connector-curvature="0" />
        <path
           id="path4317"
           inkscape:label="MajorYDiv7"
           style="fill:none;stroke:#000000;stroke-width:2"
           d="m 0,672 2880,0"
           inkscape:connector-curvature="0" />
        <path
           id="path4319"
           inkscape:label="MajorYDiv8"
           style="fill:none;stroke:#000000;stroke-width:2"
           d="m 0,768 2880,0"
           inkscape:connector-curvature="0" />
        <path
           id="path4321"
           inkscape:label="MajorYDiv9"
           style="fill:none;stroke:#000000;stroke-width:2"
           d="m 0,864 2880,0"
           inkscape:connector-curvature="0" />
        <path
           id="path4323"
           inkscape:label="MajorYDiv10"
           style="fill:none;stroke:#000000;stroke-width:2"
           d="m 0,960 2880,0"
           inkscape:connector-curvature="0" />
        <path
           id="path4325"
           inkscape:label="MajorYDiv11"
           style="fill:none;stroke:#000000;stroke-width:2"
           d="m 0,1056 2880,0"
           inkscape:connector-curvature="0" />
        <path
           id="path4327"
           inkscape:label="MajorYDiv12"
           style="fill:none;stroke:#000000;stroke-width:2"
           d="m 0,1152 2880,0"
           inkscape:connector-curvature="0" />
        <path
           id="path4329"
           inkscape:label="MajorYDiv13"
           style="fill:none;stroke:#000000;stroke-width:2"
           d="m 0,1248 2880,0"
           inkscape:connector-curvature="0" />
        <path
           id="path4331"
           inkscape:label="MajorYDiv14"
           style="fill:none;stroke:#000000;stroke-width:2"
           d="m 0,1344 2880,0"
           inkscape:connector-curvature="0" />
        <path
           id="path4333"
           inkscape:label="MajorYDiv15"
           style="fill:none;stroke:#000000;stroke-width:2"
           d="m 0,1440 2880,0"
           inkscape:connector-curvature="0" />
        <path
           id="path4335"
           inkscape:label="MajorYDiv16"
           style="fill:none;stroke:#000000;stroke-width:2"
           d="m 0,1536 2880,0"
           inkscape:connector-curvature="0" />
        <path
           id="path4337"
           inkscape:label="MajorYDiv17"
           style="fill:none;stroke:#000000;stroke-width:2"
           d="m 0,1632 2880,0"
           inkscape:connector-curvature="0" />
        <path
           id="path4339"
           inkscape:label="MajorYDiv18"
           style="fill:none;stroke:#000000;stroke-width:2"
           d="m 0,1728 2880,0"
           inkscape:connector-curvature="0" />
        <path
           id="path4341"
           inkscape:label="MajorYDiv19"
           style="fill:none;stroke:#000000;stroke-width:2"
           d="m 0,1824 2880,0"
           inkscape:connector-curvature="0" />
      </g>
      <rect
         id="rect4343"
         inkscape:label="Border"
         y="0"
         x="0"
         width="2880"
         style="fill:none;stroke:#000000;stroke-width:3"
         height="1920" />
    </g>
  </g>
</svg>
